<mxfile host="Electron" modified="2022-02-27T19:36:47.829Z" agent="5.0 (Windows NT 10.0; Win64; x64) AppleWebKit/537.36 (KHTML, like Gecko) draw.io/16.5.1 Chrome/96.0.4664.110 Electron/16.0.7 Safari/537.36" etag="022HpUIS8tZC1rIfugq0" compressed="false" version="16.5.1" type="device">
  <diagram id="86z2GxJHTuzugCiLdp7j" name="Page-1">
    <mxGraphModel dx="2426" dy="1441" grid="1" gridSize="10" guides="1" tooltips="1" connect="1" arrows="1" fold="1" page="1" pageScale="1" pageWidth="1920" pageHeight="1200" math="0" shadow="0">
      <root>
        <mxCell id="0" />
        <mxCell id="1" parent="0" />
        <mxCell id="CNsZkp1L8z5dBXzIogCp-28" value="" style="rounded=1;whiteSpace=wrap;html=1;dashed=1;labelBackgroundColor=default;fontSize=15;fillColor=none;arcSize=7;" vertex="1" parent="1">
          <mxGeometry x="900" y="260" width="620" height="870" as="geometry" />
        </mxCell>
        <mxCell id="CNsZkp1L8z5dBXzIogCp-21" value="" style="rounded=1;whiteSpace=wrap;html=1;dashed=1;labelBackgroundColor=default;fontSize=15;fillColor=none;" vertex="1" parent="1">
          <mxGeometry x="900" y="40" width="620" height="200" as="geometry" />
        </mxCell>
        <mxCell id="CNsZkp1L8z5dBXzIogCp-15" value="" style="rounded=1;whiteSpace=wrap;html=1;fontSize=12;fillColor=#CCFF99;dashed=1;opacity=10;" vertex="1" parent="1">
          <mxGeometry x="60" y="40" width="730" height="260" as="geometry" />
        </mxCell>
        <mxCell id="CNsZkp1L8z5dBXzIogCp-26" style="edgeStyle=orthogonalEdgeStyle;shape=link;rounded=1;orthogonalLoop=1;jettySize=auto;html=1;exitX=0.95;exitY=0.07;exitDx=0;exitDy=0;exitPerimeter=0;fontFamily=Lucida Console;fontSize=16;curved=1;" edge="1" parent="1" source="91unIeQRh39jLVclFAhg-1" target="91unIeQRh39jLVclFAhg-9">
          <mxGeometry relative="1" as="geometry">
            <Array as="points">
              <mxPoint x="820" y="482" />
              <mxPoint x="820" y="200" />
            </Array>
          </mxGeometry>
        </mxCell>
        <mxCell id="CNsZkp1L8z5dBXzIogCp-27" style="edgeStyle=orthogonalEdgeStyle;shape=link;rounded=1;orthogonalLoop=1;jettySize=auto;html=1;exitX=1;exitY=0.5;exitDx=0;exitDy=0;exitPerimeter=0;entryX=0;entryY=0.5;entryDx=0;entryDy=0;entryPerimeter=0;fontFamily=Lucida Console;fontSize=16;fillColor=#f8cecc;strokeColor=#b85450;curved=1;" edge="1" parent="1" source="91unIeQRh39jLVclFAhg-1" target="91unIeQRh39jLVclFAhg-10">
          <mxGeometry relative="1" as="geometry">
            <Array as="points">
              <mxPoint x="840" y="495" />
              <mxPoint x="840" y="383" />
            </Array>
          </mxGeometry>
        </mxCell>
        <mxCell id="91unIeQRh39jLVclFAhg-1" value="&lt;font style=&quot;font-size: 16px&quot;&gt;MikroTik RB5009&lt;br&gt;10.10.10.1&lt;br&gt;tervala-koti.duckdns.org&lt;br&gt;&lt;br&gt;&lt;/font&gt;" style="fontColor=#0066CC;verticalAlign=bottom;verticalLabelPosition=top;labelPosition=center;align=center;html=1;outlineConnect=0;fillColor=#CCCCCC;strokeColor=#6881B3;gradientColor=none;gradientDirection=north;strokeWidth=2;shape=mxgraph.networks.switch;points=[[0,0.5,0,0,0],[0.05,0.07,0,0,0],[0.1,1,0,0,0],[0.3,1,0,0,0],[0.5,0,0,0,0],[0.5,1,0,0,0],[0.7,1,0,0,0],[0.9,1,0,0,0],[0.95,0.07,0,0,0],[1,0.5,0,0,0]];spacing=10;rounded=1;" parent="1" vertex="1">
          <mxGeometry x="630" y="480" width="100" height="30" as="geometry" />
        </mxCell>
        <mxCell id="91unIeQRh39jLVclFAhg-3" value="" style="html=1;outlineConnect=0;fillColor=#CCCCCC;strokeColor=#6881B3;gradientColor=none;gradientDirection=north;strokeWidth=2;shape=mxgraph.networks.cloud;fontColor=#ffffff;rounded=1;" parent="1" vertex="1">
          <mxGeometry x="105" y="80" width="90" height="50" as="geometry" />
        </mxCell>
        <mxCell id="CNsZkp1L8z5dBXzIogCp-2" style="edgeStyle=orthogonalEdgeStyle;shape=link;rounded=1;orthogonalLoop=1;jettySize=auto;html=1;exitX=1;exitY=0.5;exitDx=0;exitDy=0;exitPerimeter=0;entryX=0;entryY=0.5;entryDx=0;entryDy=0;entryPerimeter=0;curved=1;" edge="1" parent="1" source="91unIeQRh39jLVclFAhg-4" target="91unIeQRh39jLVclFAhg-1">
          <mxGeometry relative="1" as="geometry" />
        </mxCell>
        <mxCell id="91unIeQRh39jLVclFAhg-4" value="" style="fontColor=#0066CC;verticalAlign=top;verticalLabelPosition=bottom;labelPosition=center;align=center;html=1;outlineConnect=0;fillColor=#CCCCCC;strokeColor=#6881B3;gradientColor=none;gradientDirection=north;strokeWidth=2;shape=mxgraph.networks.firewall;rounded=1;" parent="1" vertex="1">
          <mxGeometry x="540" y="460" width="80" height="70" as="geometry" />
        </mxCell>
        <mxCell id="91unIeQRh39jLVclFAhg-20" style="edgeStyle=orthogonalEdgeStyle;rounded=1;orthogonalLoop=1;jettySize=auto;html=1;fontSize=14;shape=link;curved=1;" parent="1" source="91unIeQRh39jLVclFAhg-6" target="91unIeQRh39jLVclFAhg-3" edge="1">
          <mxGeometry relative="1" as="geometry">
            <mxPoint x="-130" y="205" as="targetPoint" />
          </mxGeometry>
        </mxCell>
        <mxCell id="91unIeQRh39jLVclFAhg-38" value="1000/400&lt;br style=&quot;font-size: 12px;&quot;&gt;Mbps Fiber" style="edgeLabel;html=1;align=center;verticalAlign=middle;resizable=0;points=[];fontSize=12;rounded=1;" parent="91unIeQRh39jLVclFAhg-20" vertex="1" connectable="0">
          <mxGeometry x="0.3258" relative="1" as="geometry">
            <mxPoint y="6" as="offset" />
          </mxGeometry>
        </mxCell>
        <mxCell id="91unIeQRh39jLVclFAhg-25" style="edgeStyle=orthogonalEdgeStyle;shape=link;rounded=1;orthogonalLoop=1;jettySize=auto;html=1;entryX=0;entryY=0.5;entryDx=0;entryDy=0;entryPerimeter=0;fontSize=14;curved=1;" parent="1" source="91unIeQRh39jLVclFAhg-6" target="91unIeQRh39jLVclFAhg-8" edge="1">
          <mxGeometry relative="1" as="geometry" />
        </mxCell>
        <mxCell id="91unIeQRh39jLVclFAhg-29" value="&lt;br&gt;" style="edgeLabel;html=1;align=center;verticalAlign=middle;resizable=0;points=[];fontSize=14;rounded=1;" parent="91unIeQRh39jLVclFAhg-25" vertex="1" connectable="0">
          <mxGeometry x="0.1579" y="-1" relative="1" as="geometry">
            <mxPoint as="offset" />
          </mxGeometry>
        </mxCell>
        <mxCell id="91unIeQRh39jLVclFAhg-30" value="eth1" style="edgeLabel;html=1;align=center;verticalAlign=middle;resizable=0;points=[];fontSize=12;rounded=1;" parent="91unIeQRh39jLVclFAhg-25" vertex="1" connectable="0">
          <mxGeometry x="0.8089" y="-3" relative="1" as="geometry">
            <mxPoint x="-13" y="-18" as="offset" />
          </mxGeometry>
        </mxCell>
        <mxCell id="91unIeQRh39jLVclFAhg-6" value="&lt;font size=&quot;3&quot;&gt;Fiber&lt;br&gt;media&lt;br&gt;converter&lt;/font&gt;" style="fontColor=#0066CC;verticalAlign=top;verticalLabelPosition=bottom;labelPosition=center;align=center;html=1;outlineConnect=0;fillColor=#CCCCCC;strokeColor=#6881B3;gradientColor=none;gradientDirection=north;strokeWidth=2;shape=mxgraph.networks.modem;rounded=1;" parent="1" vertex="1">
          <mxGeometry x="100" y="190" width="100" height="30" as="geometry" />
        </mxCell>
        <mxCell id="91unIeQRh39jLVclFAhg-31" style="edgeStyle=orthogonalEdgeStyle;shape=link;rounded=1;orthogonalLoop=1;jettySize=auto;html=1;exitX=0.5;exitY=1;exitDx=0;exitDy=0;exitPerimeter=0;entryX=0.5;entryY=0;entryDx=0;entryDy=0;entryPerimeter=0;fontSize=14;fillColor=#f8cecc;strokeColor=#b85450;curved=1;" parent="1" source="91unIeQRh39jLVclFAhg-8" target="91unIeQRh39jLVclFAhg-19" edge="1">
          <mxGeometry relative="1" as="geometry" />
        </mxCell>
        <mxCell id="91unIeQRh39jLVclFAhg-32" value="SFP 1&lt;br style=&quot;font-size: 12px;&quot;&gt;tx 1310nm" style="edgeLabel;html=1;align=center;verticalAlign=middle;resizable=0;points=[];fontSize=12;labelBackgroundColor=default;rounded=1;" parent="91unIeQRh39jLVclFAhg-31" vertex="1" connectable="0">
          <mxGeometry x="-0.8687" y="-1" relative="1" as="geometry">
            <mxPoint y="13" as="offset" />
          </mxGeometry>
        </mxCell>
        <mxCell id="91unIeQRh39jLVclFAhg-33" value="SFP 2&lt;br style=&quot;font-size: 12px;&quot;&gt;tx 1550nm" style="edgeLabel;html=1;align=center;verticalAlign=middle;resizable=0;points=[];fontSize=12;rounded=1;" parent="91unIeQRh39jLVclFAhg-31" vertex="1" connectable="0">
          <mxGeometry x="0.8767" y="1" relative="1" as="geometry">
            <mxPoint y="-14" as="offset" />
          </mxGeometry>
        </mxCell>
        <mxCell id="91unIeQRh39jLVclFAhg-34" value="Single mode BiDi fiber&lt;br&gt;between houses" style="edgeLabel;html=1;align=center;verticalAlign=middle;resizable=0;points=[];fontSize=12;rounded=1;" parent="91unIeQRh39jLVclFAhg-31" vertex="1" connectable="0">
          <mxGeometry x="0.1605" y="2" relative="1" as="geometry">
            <mxPoint y="9" as="offset" />
          </mxGeometry>
        </mxCell>
        <mxCell id="91unIeQRh39jLVclFAhg-35" style="edgeStyle=orthogonalEdgeStyle;shape=link;rounded=1;orthogonalLoop=1;jettySize=auto;html=1;fontSize=14;curved=1;" parent="1" source="91unIeQRh39jLVclFAhg-8" target="91unIeQRh39jLVclFAhg-22" edge="1">
          <mxGeometry relative="1" as="geometry" />
        </mxCell>
        <mxCell id="91unIeQRh39jLVclFAhg-36" value="eth2" style="edgeLabel;html=1;align=center;verticalAlign=middle;resizable=0;points=[];fontSize=12;rounded=1;" parent="91unIeQRh39jLVclFAhg-35" vertex="1" connectable="0">
          <mxGeometry x="-0.7814" y="-2" relative="1" as="geometry">
            <mxPoint x="1" y="-17" as="offset" />
          </mxGeometry>
        </mxCell>
        <mxCell id="91unIeQRh39jLVclFAhg-8" value="MikroTik RB260GS&lt;br&gt;10.10.10.26" style="fontColor=#0066CC;verticalAlign=bottom;verticalLabelPosition=top;labelPosition=center;align=center;html=1;outlineConnect=0;fillColor=#CCCCCC;strokeColor=#6881B3;gradientColor=none;gradientDirection=north;strokeWidth=2;shape=mxgraph.networks.router;fontSize=15;spacingTop=0;spacing=10;rounded=1;" parent="1" vertex="1">
          <mxGeometry x="270" y="190" width="100" height="30" as="geometry" />
        </mxCell>
        <mxCell id="91unIeQRh39jLVclFAhg-9" value="Raspberry Pi 3b&lt;br style=&quot;font-size: 17px;&quot;&gt;raspberrypi-pihole2&lt;br style=&quot;font-size: 17px;&quot;&gt;10.10.10.5" style="fontColor=#0066CC;verticalAlign=bottom;verticalLabelPosition=top;labelPosition=right;align=left;html=1;outlineConnect=0;fillColor=#CCCCCC;strokeColor=#6881B3;gradientColor=none;gradientDirection=north;strokeWidth=2;shape=mxgraph.networks.server;fontSize=17;spacing=10;rounded=1;fontStyle=1" parent="1" vertex="1">
          <mxGeometry x="930" y="120" width="90" height="100" as="geometry" />
        </mxCell>
        <mxCell id="91unIeQRh39jLVclFAhg-10" value="Proxmox VE&lt;br style=&quot;font-size: 17px&quot;&gt;i3-10100, 32GB, 24TB&lt;br&gt;10.10.10.8" style="fontColor=#0066CC;verticalAlign=bottom;verticalLabelPosition=top;labelPosition=right;align=left;html=1;outlineConnect=0;fillColor=#CCCCCC;strokeColor=#6881B3;gradientColor=none;gradientDirection=north;strokeWidth=2;shape=mxgraph.networks.server_storage;fontSize=17;rounded=1;fontStyle=1;points=[[0,0.14,0,0,0],[0,0.33,0,0,0],[0,0.5,0,0,0],[0,0.72,0,0,0],[0,0.93,0,0,0],[0.5,0,0,0,0],[0.5,0.94,0,0,0],[0.87,0.14,0,0,0],[0.88,0.5,0,0,0],[1,0.97,0,0,0]];" parent="1" vertex="1">
          <mxGeometry x="930" y="330" width="105" height="105" as="geometry" />
        </mxCell>
        <mxCell id="CNsZkp1L8z5dBXzIogCp-52" style="edgeStyle=orthogonalEdgeStyle;shape=link;curved=1;rounded=1;sketch=0;orthogonalLoop=1;jettySize=auto;html=1;shadow=0;fontFamily=Helvetica;fontSize=11;startArrow=open;startFill=0;endArrow=classic;endFill=0;startSize=9;endSize=9;targetPerimeterSpacing=0;strokeColor=default;strokeWidth=1;elbow=vertical;entryX=0.3;entryY=1;entryDx=0;entryDy=0;entryPerimeter=0;" edge="1" parent="1" source="91unIeQRh39jLVclFAhg-11" target="91unIeQRh39jLVclFAhg-1">
          <mxGeometry relative="1" as="geometry">
            <mxPoint x="690" y="540" as="targetPoint" />
            <Array as="points">
              <mxPoint x="345" y="650" />
              <mxPoint x="660" y="650" />
            </Array>
          </mxGeometry>
        </mxCell>
        <mxCell id="91unIeQRh39jLVclFAhg-11" value="Ubiquiti UAP-AC-LITE&lt;br style=&quot;font-size: 14px;&quot;&gt;Upstairs AP" style="fontColor=#0066CC;verticalAlign=top;verticalLabelPosition=bottom;labelPosition=center;align=center;html=1;outlineConnect=0;fillColor=#CCCCCC;strokeColor=#6881B3;gradientColor=none;gradientDirection=north;strokeWidth=2;shape=mxgraph.networks.wireless_hub;rounded=1;fontSize=14;" parent="1" vertex="1">
          <mxGeometry x="300" y="740" width="90" height="80" as="geometry" />
        </mxCell>
        <mxCell id="CNsZkp1L8z5dBXzIogCp-3" style="edgeStyle=orthogonalEdgeStyle;shape=link;rounded=1;orthogonalLoop=1;jettySize=auto;html=1;exitX=1;exitY=0.5;exitDx=0;exitDy=0;exitPerimeter=0;entryX=0;entryY=0.5;entryDx=0;entryDy=0;entryPerimeter=0;curved=1;" edge="1" parent="1" source="91unIeQRh39jLVclFAhg-19" target="91unIeQRh39jLVclFAhg-4">
          <mxGeometry relative="1" as="geometry" />
        </mxCell>
        <mxCell id="CNsZkp1L8z5dBXzIogCp-11" value="eth2" style="edgeLabel;html=1;align=center;verticalAlign=middle;resizable=0;points=[];fontSize=12;rounded=1;" vertex="1" connectable="0" parent="CNsZkp1L8z5dBXzIogCp-3">
          <mxGeometry x="-0.8185" y="2" relative="1" as="geometry">
            <mxPoint x="15" y="-13" as="offset" />
          </mxGeometry>
        </mxCell>
        <mxCell id="CNsZkp1L8z5dBXzIogCp-12" value="eth2" style="edgeLabel;html=1;align=center;verticalAlign=middle;resizable=0;points=[];fontSize=12;rounded=1;" vertex="1" connectable="0" parent="CNsZkp1L8z5dBXzIogCp-3">
          <mxGeometry x="0.842" relative="1" as="geometry">
            <mxPoint x="-7" y="-15" as="offset" />
          </mxGeometry>
        </mxCell>
        <mxCell id="CNsZkp1L8z5dBXzIogCp-13" value="&amp;nbsp;WAN&amp;nbsp;" style="edgeLabel;html=1;align=center;verticalAlign=middle;resizable=0;points=[];fontSize=12;rounded=1;" vertex="1" connectable="0" parent="CNsZkp1L8z5dBXzIogCp-3">
          <mxGeometry x="0.1976" y="-1" relative="1" as="geometry">
            <mxPoint x="-22" as="offset" />
          </mxGeometry>
        </mxCell>
        <mxCell id="CNsZkp1L8z5dBXzIogCp-5" style="edgeStyle=orthogonalEdgeStyle;shape=link;rounded=1;orthogonalLoop=1;jettySize=auto;html=1;entryX=0.1;entryY=1;entryDx=0;entryDy=0;entryPerimeter=0;curved=1;exitX=0.7;exitY=1;exitDx=0;exitDy=0;exitPerimeter=0;" edge="1" parent="1" source="91unIeQRh39jLVclFAhg-19" target="91unIeQRh39jLVclFAhg-1">
          <mxGeometry relative="1" as="geometry">
            <mxPoint x="330" y="530" as="sourcePoint" />
            <Array as="points">
              <mxPoint x="340" y="560" />
              <mxPoint x="640" y="560" />
            </Array>
          </mxGeometry>
        </mxCell>
        <mxCell id="CNsZkp1L8z5dBXzIogCp-14" value="&amp;nbsp;LAN&amp;nbsp;" style="edgeLabel;html=1;align=center;verticalAlign=middle;resizable=0;points=[];fontSize=12;rounded=1;" vertex="1" connectable="0" parent="CNsZkp1L8z5dBXzIogCp-5">
          <mxGeometry x="-0.2827" y="2" relative="1" as="geometry">
            <mxPoint x="3" y="2" as="offset" />
          </mxGeometry>
        </mxCell>
        <mxCell id="91unIeQRh39jLVclFAhg-19" value="&lt;span style=&quot;font-size: 15px&quot;&gt;MikroTik RB260GS&lt;/span&gt;&lt;br style=&quot;font-size: 15px&quot;&gt;&lt;span style=&quot;font-size: 15px&quot;&gt;10.10.10.25&lt;/span&gt;" style="fontColor=#0066CC;verticalAlign=bottom;verticalLabelPosition=top;labelPosition=left;align=right;html=1;outlineConnect=0;fillColor=#CCCCCC;strokeColor=#6881B3;gradientColor=none;gradientDirection=north;strokeWidth=2;shape=mxgraph.networks.router;points=[[0,0.5,0,0,0],[0.05,0.07,0,0,0],[0.1,1,0,0,0],[0.3,1,0,0,0],[0.5,0,0,0,0],[0.5,1,0,0,0],[0.7,1,0,0,0],[0.9,1,0,0,0],[0.95,0.07,0,0,0],[1,0.5,0,0,0]];rounded=1;" parent="1" vertex="1">
          <mxGeometry x="270" y="480" width="100" height="30" as="geometry" />
        </mxCell>
        <mxCell id="CNsZkp1L8z5dBXzIogCp-19" style="edgeStyle=orthogonalEdgeStyle;shape=link;rounded=1;orthogonalLoop=1;jettySize=auto;html=1;exitX=0.5;exitY=0;exitDx=0;exitDy=0;exitPerimeter=0;fontSize=14;curved=1;" edge="1" parent="1" source="91unIeQRh39jLVclFAhg-21" target="CNsZkp1L8z5dBXzIogCp-17">
          <mxGeometry relative="1" as="geometry" />
        </mxCell>
        <mxCell id="91unIeQRh39jLVclFAhg-21" value="Ubiquiti ER-X" style="fontColor=#0066CC;verticalAlign=top;verticalLabelPosition=bottom;labelPosition=center;align=center;html=1;outlineConnect=0;fillColor=#CCCCCC;strokeColor=#6881B3;gradientColor=none;gradientDirection=north;strokeWidth=2;shape=mxgraph.networks.switch;fontSize=14;rounded=1;" parent="1" vertex="1">
          <mxGeometry x="630" y="190" width="100" height="30" as="geometry" />
        </mxCell>
        <mxCell id="91unIeQRh39jLVclFAhg-37" style="edgeStyle=orthogonalEdgeStyle;shape=link;rounded=1;orthogonalLoop=1;jettySize=auto;html=1;entryX=0;entryY=0.5;entryDx=0;entryDy=0;entryPerimeter=0;fontSize=14;curved=1;" parent="1" source="91unIeQRh39jLVclFAhg-22" target="91unIeQRh39jLVclFAhg-21" edge="1">
          <mxGeometry relative="1" as="geometry" />
        </mxCell>
        <mxCell id="91unIeQRh39jLVclFAhg-22" value="" style="fontColor=#0066CC;verticalAlign=top;verticalLabelPosition=bottom;labelPosition=center;align=center;html=1;outlineConnect=0;fillColor=#CCCCCC;strokeColor=#6881B3;gradientColor=none;gradientDirection=north;strokeWidth=2;shape=mxgraph.networks.firewall;rounded=1;" parent="1" vertex="1">
          <mxGeometry x="540" y="170" width="80" height="70" as="geometry" />
        </mxCell>
        <mxCell id="CNsZkp1L8z5dBXzIogCp-6" value="VLAN1: LAN&lt;br&gt;&lt;div&gt;&lt;span&gt;VLAN20: WAN&lt;/span&gt;&lt;/div&gt;" style="text;html=1;align=left;verticalAlign=middle;resizable=0;points=[];autosize=1;strokeColor=none;fillColor=none;rounded=1;" vertex="1" parent="1">
          <mxGeometry x="370" y="310" width="90" height="30" as="geometry" />
        </mxCell>
        <mxCell id="CNsZkp1L8z5dBXzIogCp-10" value="" style="endArrow=none;dashed=1;html=1;rounded=1;entryX=-0.012;entryY=0.487;entryDx=0;entryDy=0;entryPerimeter=0;curved=1;" edge="1" parent="1" target="CNsZkp1L8z5dBXzIogCp-6">
          <mxGeometry width="50" height="50" relative="1" as="geometry">
            <mxPoint x="320" y="290" as="sourcePoint" />
            <mxPoint x="330" y="290" as="targetPoint" />
          </mxGeometry>
        </mxCell>
        <mxCell id="CNsZkp1L8z5dBXzIogCp-16" value="Neighbor&#39;s property" style="text;html=1;align=center;verticalAlign=middle;resizable=0;points=[];autosize=1;strokeColor=none;fillColor=none;fontSize=18;fontStyle=4;rounded=1;" vertex="1" parent="1">
          <mxGeometry x="330" y="55" width="170" height="30" as="geometry" />
        </mxCell>
        <mxCell id="CNsZkp1L8z5dBXzIogCp-17" value="Ubiquiti&lt;br&gt;UAP-AC-LR" style="fontColor=#0066CC;verticalAlign=middle;verticalLabelPosition=middle;labelPosition=left;align=right;html=1;outlineConnect=0;fillColor=#CCCCCC;strokeColor=#6881B3;gradientColor=none;gradientDirection=north;strokeWidth=2;shape=mxgraph.networks.wireless_hub;spacing=10;rounded=1;" vertex="1" parent="1">
          <mxGeometry x="645" y="70" width="70" height="70" as="geometry" />
        </mxCell>
        <mxCell id="CNsZkp1L8z5dBXzIogCp-22" value="TrueNAS Storage Server&lt;br style=&quot;font-size: 15px&quot;&gt;2x 8TB + 2x 4TB ZFS Storage&lt;br&gt;NFS and SMB Shares" style="fontColor=#0066CC;verticalAlign=middle;verticalLabelPosition=middle;labelPosition=right;align=left;html=1;outlineConnect=0;fillColor=#CCCCCC;strokeColor=#6881B3;gradientColor=none;gradientDirection=north;strokeWidth=2;shape=mxgraph.networks.server_storage;dashed=1;labelBackgroundColor=default;fontSize=15;spacing=10;rounded=1;" vertex="1" parent="1">
          <mxGeometry x="930" y="465" width="60" height="60" as="geometry" />
        </mxCell>
        <mxCell id="CNsZkp1L8z5dBXzIogCp-29" value="Untagged: LAN&lt;br&gt;&lt;div&gt;&lt;span&gt;VLAN20: WAN&lt;/span&gt;&lt;/div&gt;" style="text;html=1;align=left;verticalAlign=middle;resizable=0;points=[];autosize=1;strokeColor=none;fillColor=none;rounded=1;" vertex="1" parent="1">
          <mxGeometry x="740" y="535" width="100" height="30" as="geometry" />
        </mxCell>
        <mxCell id="CNsZkp1L8z5dBXzIogCp-30" value="" style="endArrow=none;dashed=1;html=1;rounded=1;curved=1;" edge="1" parent="1" target="CNsZkp1L8z5dBXzIogCp-29">
          <mxGeometry width="50" height="50" relative="1" as="geometry">
            <mxPoint x="780" y="500" as="sourcePoint" />
            <mxPoint x="725" y="535" as="targetPoint" />
          </mxGeometry>
        </mxCell>
        <mxCell id="CNsZkp1L8z5dBXzIogCp-31" value="Home Assistant OS&lt;br style=&quot;font-size: 15px;&quot;&gt;Home automation platform" style="fontColor=#0066CC;verticalAlign=middle;verticalLabelPosition=middle;labelPosition=right;align=left;html=1;outlineConnect=0;fillColor=#CCCCCC;strokeColor=#6881B3;gradientColor=none;gradientDirection=north;strokeWidth=2;shape=mxgraph.networks.server;dashed=1;labelBackgroundColor=default;fontSize=15;spacing=10;rounded=1;" vertex="1" parent="1">
          <mxGeometry x="930" y="630" width="50" height="50" as="geometry" />
        </mxCell>
        <mxCell id="CNsZkp1L8z5dBXzIogCp-32" value="Pi-hole secondary DNS server&lt;br style=&quot;font-size: 15px;&quot;&gt;DHCP 10.10.10.150 - 10.10.10.250&lt;br style=&quot;font-size: 15px;&quot;&gt;with&amp;nbsp;&lt;font face=&quot;Consolas&quot; style=&quot;font-size: 15px;&quot;&gt;dhcp-reply-delay=5&lt;/font&gt;" style="fontColor=#0066CC;verticalAlign=middle;verticalLabelPosition=middle;labelPosition=right;align=left;html=1;outlineConnect=0;fillColor=#CCCCCC;strokeColor=#6881B3;gradientColor=none;gradientDirection=north;strokeWidth=2;shape=mxgraph.networks.server;dashed=1;labelBackgroundColor=default;fontSize=15;spacing=10;rounded=1;" vertex="1" parent="1">
          <mxGeometry x="1070" y="150" width="50" height="50" as="geometry" />
        </mxCell>
        <mxCell id="CNsZkp1L8z5dBXzIogCp-34" value="" style="endArrow=open;html=1;fontFamily=Lucida Console;fontSize=15;elbow=vertical;dashed=1;strokeWidth=4;startArrow=open;startFill=0;endFill=0;fillColor=#ffe6cc;strokeColor=#97D077;targetPerimeterSpacing=0;endSize=9;startSize=9;shadow=0;sketch=1;labelPosition=right;verticalLabelPosition=middle;align=left;verticalAlign=middle;rounded=1;curved=1;" edge="1" parent="1">
          <mxGeometry width="50" height="50" relative="1" as="geometry">
            <mxPoint x="1420" y="380" as="sourcePoint" />
            <mxPoint x="1420" y="200" as="targetPoint" />
            <Array as="points">
              <mxPoint x="1490" y="370" />
              <mxPoint x="1490" y="210" />
            </Array>
          </mxGeometry>
        </mxCell>
        <mxCell id="CNsZkp1L8z5dBXzIogCp-36" value="&lt;font face=&quot;Helvetica&quot; style=&quot;font-size: 15px;&quot;&gt;Pi-hole&lt;br style=&quot;font-size: 15px;&quot;&gt;Gravity Sync&lt;br style=&quot;font-size: 15px;&quot;&gt;Every 5 minutes&lt;/font&gt;" style="edgeLabel;html=1;align=left;verticalAlign=middle;resizable=0;points=[];fontSize=15;fontFamily=Lucida Console;rounded=1;" vertex="1" connectable="0" parent="CNsZkp1L8z5dBXzIogCp-34">
          <mxGeometry x="0.1703" y="-1" relative="1" as="geometry">
            <mxPoint x="39" y="-4" as="offset" />
          </mxGeometry>
        </mxCell>
        <mxCell id="CNsZkp1L8z5dBXzIogCp-37" value="&lt;font style=&quot;font-size: 15px;&quot;&gt;10.10.10.3&lt;br style=&quot;font-size: 15px;&quot;&gt;pfSense Router&lt;br style=&quot;font-size: 15px;&quot;&gt;2nd WAN IP address&lt;br style=&quot;font-size: 15px;&quot;&gt;tervala-2.duckdns.org&lt;br style=&quot;font-size: 15px;&quot;&gt;&lt;/font&gt;" style="fontColor=#0066CC;verticalAlign=middle;verticalLabelPosition=middle;labelPosition=right;align=left;html=1;outlineConnect=0;fillColor=#CCCCCC;strokeColor=#6881B3;gradientColor=none;gradientDirection=north;strokeWidth=2;shape=mxgraph.networks.switch;points=[[0,0.5,0,0,0],[0.05,0.07,0,0,0],[0.1,1,0,0,0],[0.3,1,0,0,0],[0.5,0,0,0,0],[0.5,1,0,0,0],[0.7,1,0,0,0],[0.9,1,0,0,0],[0.95,0.07,0,0,0],[1,0.5,0,0,0]];spacing=10;dashed=1;rounded=1;fontSize=15;" vertex="1" parent="1">
          <mxGeometry x="1020" y="565" width="70" height="20" as="geometry" />
        </mxCell>
        <mxCell id="CNsZkp1L8z5dBXzIogCp-40" style="edgeStyle=orthogonalEdgeStyle;shape=link;curved=1;rounded=1;sketch=1;orthogonalLoop=1;jettySize=auto;html=1;exitX=1;exitY=0.5;exitDx=0;exitDy=0;exitPerimeter=0;entryX=0;entryY=0.5;entryDx=0;entryDy=0;entryPerimeter=0;shadow=0;dashed=1;fontFamily=Helvetica;fontSize=15;startArrow=open;startFill=0;endArrow=classic;endFill=0;startSize=9;endSize=9;targetPerimeterSpacing=0;strokeColor=default;strokeWidth=1;elbow=vertical;" edge="1" parent="1" source="CNsZkp1L8z5dBXzIogCp-38" target="CNsZkp1L8z5dBXzIogCp-37">
          <mxGeometry relative="1" as="geometry" />
        </mxCell>
        <mxCell id="CNsZkp1L8z5dBXzIogCp-38" value="" style="fontColor=#0066CC;verticalAlign=top;verticalLabelPosition=bottom;labelPosition=center;align=center;html=1;outlineConnect=0;fillColor=#CCCCCC;strokeColor=#6881B3;gradientColor=none;gradientDirection=north;strokeWidth=2;shape=mxgraph.networks.firewall;dashed=1;rounded=1;fontSize=15;" vertex="1" parent="1">
          <mxGeometry x="930" y="550" width="50" height="50" as="geometry" />
        </mxCell>
        <mxCell id="CNsZkp1L8z5dBXzIogCp-41" value="10.10.10.2&lt;br style=&quot;font-size: 15px;&quot;&gt;Pi-hole primary DNS server&lt;br style=&quot;font-size: 15px;&quot;&gt;DHCP 10.10.10.50 - 10.10.10.149" style="fontColor=#0066CC;verticalAlign=middle;verticalLabelPosition=middle;labelPosition=right;align=left;html=1;outlineConnect=0;fillColor=#CCCCCC;strokeColor=#6881B3;gradientColor=none;gradientDirection=north;strokeWidth=2;shape=mxgraph.networks.server;dashed=1;labelBackgroundColor=default;fontSize=15;spacing=10;rounded=1;" vertex="1" parent="1">
          <mxGeometry x="1080" y="370" width="50" height="50" as="geometry" />
        </mxCell>
        <mxCell id="CNsZkp1L8z5dBXzIogCp-42" value="Ubuntu Docker Server" style="fontColor=#0066CC;verticalAlign=middle;verticalLabelPosition=middle;labelPosition=right;align=left;html=1;outlineConnect=0;fillColor=#CCCCCC;strokeColor=#6881B3;gradientColor=none;gradientDirection=north;strokeWidth=2;shape=mxgraph.networks.server;dashed=1;labelBackgroundColor=default;fontSize=15;spacing=10;rounded=1;" vertex="1" parent="1">
          <mxGeometry x="930" y="740" width="50" height="50" as="geometry" />
        </mxCell>
        <mxCell id="CNsZkp1L8z5dBXzIogCp-43" value="Ubuntu Docker Server 2nd WAN&lt;br style=&quot;font-size: 15px&quot;&gt;Uses 10.10.10.3 pfSense router as gateway for second WAN IP" style="fontColor=#0066CC;verticalAlign=middle;verticalLabelPosition=middle;labelPosition=right;align=left;html=1;outlineConnect=0;fillColor=#CCCCCC;strokeColor=#6881B3;gradientColor=none;gradientDirection=north;strokeWidth=2;shape=mxgraph.networks.server;dashed=1;labelBackgroundColor=default;fontSize=15;spacing=10;rounded=1;" vertex="1" parent="1">
          <mxGeometry x="930" y="890" width="50" height="50" as="geometry" />
        </mxCell>
        <mxCell id="CNsZkp1L8z5dBXzIogCp-44" value="Ubuntu TeamSpeak Server&lt;br style=&quot;font-size: 15px;&quot;&gt;Connected directly to WAN for separate IP address" style="fontColor=#0066CC;verticalAlign=middle;verticalLabelPosition=middle;labelPosition=right;align=left;html=1;outlineConnect=0;fillColor=#CCCCCC;strokeColor=#6881B3;gradientColor=none;gradientDirection=north;strokeWidth=2;shape=mxgraph.networks.server;dashed=1;labelBackgroundColor=default;fontSize=15;spacing=10;rounded=1;" vertex="1" parent="1">
          <mxGeometry x="930" y="1000" width="50" height="50" as="geometry" />
        </mxCell>
        <mxCell id="CNsZkp1L8z5dBXzIogCp-45" value="UbiquitiUniFi Controller" style="fontColor=#0066CC;verticalAlign=middle;verticalLabelPosition=middle;labelPosition=right;align=left;html=1;outlineConnect=0;fillColor=#CCCCCC;strokeColor=#6881B3;gradientColor=none;gradientDirection=north;strokeWidth=2;shape=mxgraph.networks.server;dashed=1;labelBackgroundColor=default;fontSize=15;spacing=10;rounded=1;" vertex="1" parent="1">
          <mxGeometry x="980" y="690" width="30" height="30" as="geometry" />
        </mxCell>
        <mxCell id="CNsZkp1L8z5dBXzIogCp-48" value="docer-transmission-openvpn" style="fontColor=#0066CC;verticalAlign=middle;verticalLabelPosition=middle;labelPosition=right;align=left;html=1;outlineConnect=0;fillColor=#CCCCCC;strokeColor=#6881B3;gradientColor=none;gradientDirection=north;strokeWidth=2;shape=mxgraph.networks.server;dashed=1;labelBackgroundColor=default;fontSize=15;spacing=10;rounded=1;" vertex="1" parent="1">
          <mxGeometry x="980" y="800" width="30" height="30" as="geometry" />
        </mxCell>
        <mxCell id="CNsZkp1L8z5dBXzIogCp-49" value="Open VPN" style="fontColor=#0066CC;verticalAlign=middle;verticalLabelPosition=middle;labelPosition=right;align=left;html=1;outlineConnect=0;fillColor=#CCCCCC;strokeColor=#6881B3;gradientColor=none;gradientDirection=north;strokeWidth=2;shape=mxgraph.networks.server;dashed=1;labelBackgroundColor=default;fontSize=15;spacing=10;rounded=1;" vertex="1" parent="1">
          <mxGeometry x="980" y="840" width="30" height="30" as="geometry" />
        </mxCell>
        <mxCell id="CNsZkp1L8z5dBXzIogCp-50" value="Nextcloud" style="fontColor=#0066CC;verticalAlign=middle;verticalLabelPosition=middle;labelPosition=right;align=left;html=1;outlineConnect=0;fillColor=#CCCCCC;strokeColor=#6881B3;gradientColor=none;gradientDirection=north;strokeWidth=2;shape=mxgraph.networks.server;dashed=1;labelBackgroundColor=default;fontSize=15;spacing=10;rounded=1;" vertex="1" parent="1">
          <mxGeometry x="980" y="950" width="30" height="30" as="geometry" />
        </mxCell>
        <mxCell id="CNsZkp1L8z5dBXzIogCp-54" style="edgeStyle=orthogonalEdgeStyle;shape=link;curved=1;rounded=1;sketch=0;orthogonalLoop=1;jettySize=auto;html=1;shadow=0;labelBackgroundColor=default;fontFamily=Helvetica;fontSize=11;fontColor=default;startArrow=open;startFill=0;endArrow=classic;endFill=0;startSize=9;endSize=9;targetPerimeterSpacing=0;strokeColor=default;strokeWidth=1;elbow=vertical;" edge="1" parent="1" source="CNsZkp1L8z5dBXzIogCp-51" target="91unIeQRh39jLVclFAhg-1">
          <mxGeometry relative="1" as="geometry">
            <mxPoint x="680" y="540" as="targetPoint" />
            <Array as="points">
              <mxPoint x="150" y="620" />
              <mxPoint x="650" y="620" />
            </Array>
          </mxGeometry>
        </mxCell>
        <mxCell id="CNsZkp1L8z5dBXzIogCp-51" value="Ubiquiti UAP-AC-LITE&lt;br style=&quot;font-size: 14px&quot;&gt;Downstairs AP" style="fontColor=#0066CC;verticalAlign=top;verticalLabelPosition=bottom;labelPosition=center;align=center;html=1;outlineConnect=0;fillColor=#CCCCCC;strokeColor=#6881B3;gradientColor=none;gradientDirection=north;strokeWidth=2;shape=mxgraph.networks.wireless_hub;rounded=1;fontSize=14;" vertex="1" parent="1">
          <mxGeometry x="105" y="740" width="90" height="80" as="geometry" />
        </mxCell>
        <mxCell id="CNsZkp1L8z5dBXzIogCp-56" style="edgeStyle=orthogonalEdgeStyle;shape=link;curved=1;rounded=1;sketch=0;orthogonalLoop=1;jettySize=auto;html=1;shadow=0;labelBackgroundColor=default;fontFamily=Helvetica;fontSize=14;fontColor=default;startArrow=open;startFill=0;endArrow=classic;endFill=0;startSize=9;endSize=9;targetPerimeterSpacing=0;strokeColor=default;strokeWidth=1;elbow=vertical;entryX=0;entryY=0.72;entryDx=0;entryDy=0;entryPerimeter=0;" edge="1" parent="1" source="CNsZkp1L8z5dBXzIogCp-55" target="91unIeQRh39jLVclFAhg-10">
          <mxGeometry relative="1" as="geometry">
            <mxPoint x="830" y="670" as="targetPoint" />
            <Array as="points">
              <mxPoint x="860" y="755" />
              <mxPoint x="860" y="406" />
            </Array>
          </mxGeometry>
        </mxCell>
        <mxCell id="CNsZkp1L8z5dBXzIogCp-57" value="2.5 GbE" style="edgeLabel;html=1;align=center;verticalAlign=middle;resizable=0;points=[];fontSize=14;fontFamily=Helvetica;fontColor=default;" vertex="1" connectable="0" parent="CNsZkp1L8z5dBXzIogCp-56">
          <mxGeometry x="-0.2292" y="-5" relative="1" as="geometry">
            <mxPoint x="-45" y="98" as="offset" />
          </mxGeometry>
        </mxCell>
        <mxCell id="CNsZkp1L8z5dBXzIogCp-55" value="Workstation" style="fontColor=#0066CC;verticalAlign=top;verticalLabelPosition=bottom;labelPosition=center;align=center;html=1;outlineConnect=0;fillColor=#CCCCCC;strokeColor=#6881B3;gradientColor=none;gradientDirection=north;strokeWidth=2;shape=mxgraph.networks.pc;rounded=1;labelBackgroundColor=default;fontFamily=Helvetica;fontSize=14;" vertex="1" parent="1">
          <mxGeometry x="680" y="720" width="100" height="70" as="geometry" />
        </mxCell>
      </root>
    </mxGraphModel>
  </diagram>
</mxfile>
